# xmcd
#
# Track frame offsets:
#	150
#	11717
#	24167
#	37517
#	52104
#	63429
#	86192
#	98417
#	109667
#	121892
#	134567
#	153729
#
# Disc length: 2216 seconds
#
# Revision: 0
# Processed by: cddbd v1.5.2PL0 Copyright (c) Steve Scherf et al.
# Submitted via: EasyCDDAExtractor 11.9.9.666
#
DISCID=9308a60c
DTITLE=Chuck Wagon Gang - No Depression in Heaven: The Gospel Songs of the Car
DTITLE=ter Family
DYEAR=2019
DGENRE=Mountain Home
TTITLE0=When Our Lord Shall Come Again
TTITLE1=Am I A Soldier Of The Cross
TTITLE2=The Meeting In The Air
TTITLE3=The Heart That Was Broken For Me
TTITLE4=Honey In The Rock
TTITLE5=There's No Depression In Heaven
TTITLE6=The Old Gospel Ship
TTITLE7=On The Rock Where Moses Stood
TTITLE8=Anchored In Love Divine
TTITLE9=There's A Hill Lone And Gray
TTITLE10=Somebody's Boy
TTITLE11=The Bible In The Cabin
EXTD=
EXTT0=
EXTT1=
EXTT2=
EXTT3=
EXTT4=
EXTT5=
EXTT6=
EXTT7=
EXTT8=
EXTT9=
EXTT10=
EXTT11=
PLAYORDER=
